<?xml version="1.0" encoding="UTF-8"?>
<svg width="550px" height="550px" viewBox="0 0 550 550" version="1.1" xmlns="http://www.w3.org/2000/svg" xmlns:xlink="http://www.w3.org/1999/xlink">
    <title>fig-1</title>
    <g id="test" stroke="none" stroke-width="1" fill="none" fill-rule="evenodd">
        <g id="test-00" transform="translate(-853.000000, -634.000000)" fill="#093282">
            <g id="fig-1" transform="translate(853.000000, 634.000000)">
                <path d="M230,0 L232,0 C233.605,0.365 235.197,0.808 236.818,1.083 C251.06,3.505 261.676,19.274 257.682,32.241 C255.315,39.925 249.022,44.289 243.034,48.761 C231.117,57.662 227.538,69.493 230.429,83.637 C234.009,101.16 244.312,114.309 258.991,123.56 C273.88,132.943 289.605,141.004 305.003,149.575 C320.932,158.441 336.536,167.689 347.033,183.309 C361.835,205.334 355.448,237.888 322.912,242.857 C310.947,244.684 298.742,244.986 286.635,245.832 C275.743,246.592 265.129,248.309 255.63,254.134 C245.963,260.062 241.581,269.874 243.605,281.002 C245.752,292.804 252.282,301.704 262.093,308.325 C273.747,316.19 286.877,320.223 300.47,323.139 C319.792,327.283 339.463,330.103 357.814,338.016 C378.181,346.797 394.377,359.781 399.078,382.627 C401.032,392.126 401.018,402.144 400.952,411.92 C400.833,429.554 407.213,443.964 420.363,455.579 C425.48,460.099 430.657,464.606 435.302,469.59 C440.381,475.04 445.506,480.633 449.491,486.878 C457.147,498.873 456.103,511.274 448.812,523.163 C442.41,533.604 433.309,541.059 421.676,544.846 C414.638,547.138 407.237,548.319 400,550 L386,550 C384.901,549.662 383.808,549.307 382.702,548.99 C372.363,546.027 361.635,544.003 351.764,539.911 C333.082,532.167 317.579,519.412 303.094,505.526 C287.071,490.167 270.385,475.725 251.274,464.226 C235.478,454.721 214.616,452.268 198.462,470.68 C192.759,477.18 187.44,484.02 182.005,490.753 C169.229,506.583 154.837,520.561 136.258,529.455 C113.833,540.19 90.251,541.296 66.532,535.578 C39.159,528.98 17.404,514.414 6.196,487.386 C3.371,480.572 2.025,473.145 -2.84217094e-14,466 L-2.84217094e-14,452 C0.321,451.063 0.818,450.147 0.935,449.187 C2.432,436.804 6.938,425.515 14.886,416.045 C23.003,406.374 32.294,397.695 40.586,388.159 C47.872,379.78 55.423,371.391 61.181,361.979 C70.387,346.934 72.334,329.703 71.962,312.386 C71.6,295.577 70.175,278.792 69.732,261.983 C69.208,242.057 72.026,222.768 83.147,205.561 C91.019,193.382 100.147,182.443 113.876,176.474 C130.174,169.388 146.764,178.921 149.097,196.397 C150.209,204.727 148.064,212.27 144.288,219.434 C140.49,226.642 135.854,233.437 132.433,240.807 C129.742,246.604 127.489,252.872 126.54,259.156 C124.392,273.373 132.884,284.947 146.965,287.457 C162.945,290.305 174.379,282.251 183.142,270.228 C198.779,248.772 201.253,224.169 196.3,199.139 C192.508,179.977 186.37,161.237 180.58,142.524 C173.426,119.4 166.5,96.298 168.11,71.708 C169.899,44.376 182.116,22.977 205.978,9.203 C213.313,4.969 221.956,3.004 230,0" id="Fill-1"></path>
                <path d="M354,0 L371,0 C372.243,0.367 373.463,0.913 374.732,1.075 C390.317,3.058 405.047,7.793 417.989,16.671 C459.816,45.362 476.317,86.505 473.032,135.667 C471.286,161.796 466.253,187.727 462.254,213.678 C458.344,239.061 454.76,264.426 457.876,290.167 C460.806,314.369 468.809,336.395 486.405,354.071 C492.632,360.326 499.107,366.336 505.265,372.656 C523.31,391.178 543.255,408.362 550,435 L550,442 C546.974,447.44 545.017,453.997 540.72,458.11 C528.104,470.187 512.295,472.223 496.021,468.031 C474.83,462.573 459.831,448.755 451.561,428.898 C445.786,415.032 441.443,400.348 438.352,385.632 C431.52,353.124 417.479,325.942 388.146,308.04 C381.911,304.233 376.377,298.604 371.873,292.77 C360.825,278.46 362.735,264.82 376.85,253.537 C383.468,248.247 390.757,243.806 397.521,238.688 C414.537,225.817 419.424,208.203 411.906,188.207 C406.505,173.836 395.719,163.89 384.019,154.997 C364.273,139.989 343.875,125.838 324.191,110.753 C310.959,100.613 298.493,89.453 290.679,74.231 C283.811,60.852 284.029,47.541 292.312,34.894 C302.365,19.545 316.448,9.319 334.089,4.289 C340.604,2.432 347.356,1.405 354,0" id="Fill-3"></path>
                <path d="M316.6729,289.439 C315.3899,292.973 314.6159,296.809 312.7279,299.981 C307.5509,308.678 296.9769,309.227 290.5899,301.351 C286.7939,296.669 284.8609,291.258 285.0949,285.169 C285.3329,279.008 288.3199,275.263 294.2399,273.632 C304.9929,270.672 316.0269,278.575 316.6729,289.439" id="Fill-5"></path>
            </g>
        </g>
    </g>
</svg>