<?xml version="1.0" encoding="UTF-8"?>
<svg width="550px" height="559px" viewBox="0 0 550 559" version="1.1" xmlns="http://www.w3.org/2000/svg" xmlns:xlink="http://www.w3.org/1999/xlink">
    <title>fig-2</title>
    <g id="test" stroke="none" stroke-width="1" fill="none" fill-rule="evenodd">
        <g id="test-00" transform="translate(-890.000000, -34.000000)" fill="#FD821D">
            <path d="M1237.137,34.866 C1262.359,37.566 1287.025,42.572 1310.716,51.926 C1357.7,70.477 1393.647,101.326 1416.197,146.894 C1430.496,175.787 1437.407,206.593 1438.639,238.748 C1438.789,242.677 1439.532,246.583 1440,250.5 L1440,254.5 C1439.596,256.761 1438.869,259.017 1438.838,261.283 C1438.559,281.491 1436.027,301.477 1431.176,321.014 C1404.428,428.727 1344.718,511.886 1246.979,566.307 C1225.648,578.184 1203.276,587.508 1178.68,590.307 C1172.779,590.979 1166.893,591.766 1161,592.5 L1158,592.5 C1152.753,591.983 1147.49,591.593 1142.262,590.93 C1113.14,587.235 1086.03,577.562 1060.869,562.618 C1003.38,528.475 961.438,479.75 930.514,421.218 C907.093,376.887 892.452,329.873 891.107,279.283 C891.064,277.68 890.383,276.094 890,274.5 L890,255.5 C890.459,253.939 891.122,252.406 891.339,250.812 C892.079,245.389 892.48,239.916 893.332,234.513 C901.492,182.727 926.278,140.538 966.89,107.554 C994.533,85.104 1026.068,70.026 1059.673,58.97 C1096.16,46.965 1133.781,40.521 1171.919,37.127 C1188.795,35.626 1205.796,35.534 1222.735,34.705 C1225.171,34.585 1235.726,34.715 1237.137,34.866 Z" id="fig-2"></path>
        </g>
    </g>
</svg>