<?xml version="1.0" encoding="UTF-8"?>
<svg width="11px" height="11px" viewBox="0 0 11 11" version="1.1" xmlns="http://www.w3.org/2000/svg" xmlns:xlink="http://www.w3.org/1999/xlink">
    <title>icon-plus</title>
    <g id="test" stroke="none" stroke-width="1" fill="none" fill-rule="evenodd">
        <g id="test-02" transform="translate(-561.000000, -799.000000)" fill="#000000" fill-rule="nonzero">
            <g id="w350-h112-textarea" transform="translate(550.000000, 661.000000)">
                <path d="M16.6249866,148.749998 C17.0391244,148.749998 17.3749848,148.414138 17.3749848,148 L17.3749848,144.625008 L20.7499768,144.625008 C21.1641146,144.625008 21.499975,144.289148 21.499975,143.87501 L21.499975,143.125012 C21.499975,142.710874 21.1641146,142.375013 20.7499768,142.375013 L17.3749848,142.375013 L17.3749848,139.000021 C17.3749848,138.585884 17.0391244,138.250023 16.6249866,138.250023 L15.8749884,138.250023 C15.4608506,138.250023 15.1249902,138.585884 15.1249902,139.000021 L15.1249902,142.375013 L11.7499982,142.375013 C11.3358604,142.375013 11,142.710874 11,143.125012 L11,143.87501 C11,144.289148 11.3358604,144.625008 11.7499982,144.625008 L15.1249902,144.625008 L15.1249902,148 C15.1249902,148.414138 15.4608506,148.749998 15.8749884,148.749998 L16.6249866,148.749998 Z" id="icon-plus"></path>
            </g>
        </g>
    </g>
</svg>