<?xml version="1.0" encoding="UTF-8"?>
<svg width="16px" height="17px" viewBox="0 0 16 17" version="1.1" xmlns="http://www.w3.org/2000/svg" xmlns:xlink="http://www.w3.org/1999/xlink">
    <title>icon-checked</title>
    <g id="test" stroke="none" stroke-width="1" fill="none" fill-rule="evenodd">
        <g id="test-02" transform="translate(-565.000000, -581.000000)" fill="#263238" fill-rule="nonzero">
            <g id="icon-checked" transform="translate(550.000000, 547.000000)">
                <path d="M29.0624665,50.6249973 C29.9944482,50.6249973 30.7499624,49.8694831 30.7499624,48.9375013 L30.7499624,36.5625308 C30.7499624,35.6305491 29.9944482,34.8750349 29.0624665,34.8750349 L16.687496,34.8750349 C15.7555143,34.8750349 15,35.6305491 15,36.5625308 L15,48.9375013 C15,49.8694831 15.7555143,50.6249973 16.687496,50.6249973 L29.0624665,50.6249973 Z M29.0624665,48.9375013 L16.687496,48.9375013 L16.687496,36.5625308 L29.0624665,36.5625308 L29.0624665,48.9375013 Z M21.7340538,46.458305 L27.8016167,40.4394251 C27.9670292,40.2753516 27.9680935,40.0082128 27.8040199,39.8427659 L27.0117359,39.0440961 C26.8476623,38.8786836 26.5805579,38.8776193 26.4151454,39.0416929 L21.445732,43.9711779 L19.3436748,41.8520576 C19.1796012,41.6866107 18.9124968,41.6855464 18.7470843,41.84962 L17.9483801,42.641904 C17.7829333,42.8060119 17.781869,43.0731507 17.9459425,43.2385632 L21.1374632,46.4559017 C21.3015368,46.6213142 21.5686413,46.6223785 21.7340538,46.458305 Z"></path>
            </g>
        </g>
    </g>
</svg>