<?xml version="1.0" encoding="UTF-8"?>
<svg width="11px" height="13px" viewBox="0 0 11 13" version="1.1" xmlns="http://www.w3.org/2000/svg" xmlns:xlink="http://www.w3.org/1999/xlink">
    <title>icon-date</title>
    <g id="test" stroke="none" stroke-width="1" fill="none" fill-rule="evenodd">
        <g id="test-02" transform="translate(-565.000000, -425.000000)" fill="#000000" fill-rule="nonzero">
            <g id="w300-h112-select-copy-2" transform="translate(550.500000, 403.000000)">
                <path d="M25.499975,26.2500161 L25.499975,25.1250188 C25.499975,24.5039265 24.9960699,24.000025 24.3749776,24.000025 L23.2499803,24.000025 L23.2499803,22.8750241 C23.2499803,22.6687792 23.0812262,22.500025 22.8749812,22.500025 L22.124983,22.500025 C21.9187381,22.500025 21.7499839,22.6687792 21.7499839,22.8750241 L21.7499839,24.000025 L18.7499911,24.000025 L18.7499911,22.8750241 C18.7499911,22.6687792 18.5812369,22.500025 18.374992,22.500025 L17.6249937,22.500025 C17.4187488,22.500025 17.2499946,22.6687792 17.2499946,22.8750241 L17.2499946,24.000025 L16.1249973,24.000025 C15.503905,24.000025 15,24.5039265 15,25.1250188 L15,26.2500161 L25.499975,26.2500161 Z M24.3749776,34.4999964 C24.9960699,34.4999964 25.499975,33.9960914 25.499975,33.3749991 L25.499975,27.0000143 L15,27.0000143 L15,33.3749991 C15,33.9960914 15.503905,34.4999964 16.1249973,34.4999964 L24.3749776,34.4999964 Z M19.1249902,31.5000107 L16.8749955,31.5000107 C16.6687506,31.5000107 16.4999964,31.3312494 16.4999964,31.1250045 L16.4999964,28.8750098 C16.4999964,28.6687649 16.6687506,28.5000107 16.8749955,28.5000107 L19.1249902,28.5000107 C19.3312351,28.5000107 19.4999964,28.6687649 19.4999964,28.8750098 L19.4999964,31.1250045 C19.4999964,31.3312494 19.3312351,31.5000107 19.1249902,31.5000107 Z" id="icon-date"></path>
            </g>
        </g>
    </g>
</svg>