<?xml version="1.0" encoding="UTF-8"?>
<svg width="10px" height="11px" viewBox="0 0 10 11" version="1.1" xmlns="http://www.w3.org/2000/svg" xmlns:xlink="http://www.w3.org/1999/xlink">
    <title>icon-close</title>
    <g id="test" stroke="none" stroke-width="1" fill="none" fill-rule="evenodd">
        <g id="test-02" transform="translate(-888.000000, -266.000000)" fill="#000000" fill-rule="nonzero">
            <g id="vacancy">
                <path d="M896.765013,276.310667 L897.373143,275.702537 C897.708931,275.366749 897.708931,274.822359 897.373143,274.486304 L894.636852,271.750013 L897.373143,269.013721 C897.708931,268.67796 897.708931,268.133543 897.373143,267.797488 L896.765013,267.189358 C896.429225,266.85357 895.884835,266.85357 895.54878,267.189358 L892.812489,269.925649 L890.076197,267.189358 C889.740436,266.85357 889.196019,266.85357 888.859964,267.189358 L888.251834,267.797488 C887.916046,268.133276 887.916046,268.677666 888.251834,269.013721 L890.988125,271.750013 L888.251834,274.486304 C887.916046,274.822065 887.916046,275.366482 888.251834,275.702537 L888.859964,276.310667 C889.195752,276.646455 889.740436,276.646455 890.076197,276.310667 L892.812489,273.574376 L895.54878,276.310667 C895.884541,276.646455 896.429225,276.646455 896.765013,276.310667 Z" id="icon-close"></path>
            </g>
        </g>
    </g>
</svg>