<?xml version="1.0" encoding="UTF-8"?>
<svg width="11px" height="11px" viewBox="0 0 11 11" version="1.1" xmlns="http://www.w3.org/2000/svg" xmlns:xlink="http://www.w3.org/1999/xlink">
    <title>a</title>
    <g id="test" stroke="none" stroke-width="1" fill="none" fill-rule="evenodd">
        <g id="test-00" transform="translate(-909.000000, -565.000000)" fill="#263238" fill-rule="nonzero">
            <path d="M919.124976,566.750023 C919.331953,566.750023 919.499975,566.581998 919.499975,566.375021 L919.499975,565.625022 C919.499975,565.418045 919.331953,565.250023 919.124976,565.250023 L909.374999,565.250023 C909.168022,565.250023 909,565.418045 909,565.625022 L909,566.375021 C909,566.581998 909.168022,566.750023 909.374999,566.750023 L919.124976,566.750023 Z M919.124976,569.750016 C919.331953,569.750016 919.499975,569.581991 919.499975,569.375013 L919.499975,568.625015 C919.499975,568.418038 919.331953,568.250016 919.124976,568.250016 L909.374999,568.250016 C909.168022,568.250016 909,568.418038 909,568.625015 L909,569.375013 C909,569.581991 909.168022,569.750016 909.374999,569.750016 L919.124976,569.750016 Z M919.124976,572.750009 C919.331953,572.750009 919.499975,572.581984 919.499975,572.375006 L919.499975,571.625008 C919.499975,571.418031 919.331953,571.250009 919.124976,571.250009 L909.374999,571.250009 C909.168022,571.250009 909,571.418031 909,571.625008 L909,572.375006 C909,572.581984 909.168022,572.750009 909.374999,572.750009 L919.124976,572.750009 Z M919.124976,575.750002 C919.331953,575.750002 919.499975,575.581976 919.499975,575.374999 L919.499975,574.625001 C919.499975,574.418024 919.331953,574.250002 919.124976,574.250002 L909.374999,574.250002 C909.168022,574.250002 909,574.418024 909,574.625001 L909,575.374999 C909,575.581976 909.168022,575.750002 909.374999,575.750002 L919.124976,575.750002 Z" id="a"></path>
        </g>
    </g>
</svg>