<?xml version="1.0" encoding="UTF-8"?>
<svg width="16px" height="15px" viewBox="0 0 16 15" version="1.1" xmlns="http://www.w3.org/2000/svg" xmlns:xlink="http://www.w3.org/1999/xlink">
    <title>icon-attention</title>
    <g id="test" stroke="none" stroke-width="1" fill="none" fill-rule="evenodd">
        <g id="test-02" transform="translate(-874.000000, -485.000000)" fill="#000000" fill-rule="nonzero">
            <g id="vacancy">
                <path d="M888.437466,499.749996 C889.443708,499.749996 890.078087,498.656248 889.572228,497.781251 L883.012468,486.406278 C882.50936,485.53128 881.243353,485.53128 880.737495,486.406278 L874.177734,497.781251 C873.674599,498.653525 874.303504,499.749996 875.315221,499.749996 L888.437466,499.749996 Z M888.437466,498.874998 L875.312497,498.874998 C874.976175,498.874998 874.765623,498.511332 874.932409,498.218749 L881.494893,486.843777 C881.661706,486.553944 882.085533,486.551194 882.252319,486.843777 L888.814803,498.218749 C888.984339,498.508582 888.773788,498.874998 888.437466,498.874998 Z M882.153892,495.812505 C882.241397,495.812505 882.315204,495.741422 882.317954,495.653917 L882.523032,490.294555 C882.525756,490.201576 882.451922,490.125019 882.35897,490.125019 L881.388269,490.125019 C881.29529,490.125019 881.221456,490.201576 881.224207,490.294555 L881.429285,495.653917 C881.432008,495.744146 881.505841,495.812505 881.593347,495.812505 L882.153892,495.812505 Z M881.874981,497.890625 C882.298808,497.890625 882.640604,497.548829 882.640604,497.125002 C882.640604,496.701175 882.298808,496.359379 881.874981,496.359379 C881.451154,496.359379 881.109358,496.701175 881.109358,497.125002 C881.109358,497.548829 881.451154,497.890625 881.874981,497.890625 Z" id="icon-attention"></path>
            </g>
        </g>
    </g>
</svg>