<?xml version="1.0" encoding="UTF-8"?>
<svg width="12px" height="13px" viewBox="0 0 12 13" version="1.1" xmlns="http://www.w3.org/2000/svg" xmlns:xlink="http://www.w3.org/1999/xlink">
    <title>icon-info</title>
    <g id="test" stroke="none" stroke-width="1" fill="none" fill-rule="evenodd">
        <g id="test-02" transform="translate(-565.000000, -683.000000)" fill="#000000" fill-rule="nonzero">
            <g id="w350-h112-textarea" transform="translate(550.000000, 661.000000)">
                <path d="M20.9999857,34.3124969 C24.2099085,34.3124969 26.8124718,31.7108719 26.8124718,28.5000107 C26.8124718,25.2910264 24.2099085,22.6875246 20.9999857,22.6875246 C17.7900629,22.6875246 15.1874996,25.2910264 15.1874996,28.5000107 C15.1874996,31.7108719 17.7900629,34.3124969 20.9999857,34.3124969 Z M20.9999857,27.2343887 C20.456324,27.2343887 20.015613,26.7936778 20.015613,26.2500161 C20.015613,25.7063544 20.456324,25.2656434 20.9999857,25.2656434 C21.5436474,25.2656434 21.9843583,25.7063544 21.9843583,26.2500161 C21.9843583,26.7936778 21.5436474,27.2343887 20.9999857,27.2343887 Z M22.0312332,31.5000036 L19.9687382,31.5000036 C19.8134193,31.5000036 19.6874888,31.3740731 19.6874888,31.2187542 L19.6874888,30.6562556 C19.6874888,30.5009367 19.8134193,30.3750063 19.9687382,30.3750063 L20.2499875,30.3750063 L20.2499875,28.8750098 L19.9687382,28.8750098 C19.8134193,28.8750098 19.6874888,28.7490793 19.6874888,28.5937605 L19.6874888,28.0312618 C19.6874888,27.875943 19.8134193,27.7500125 19.9687382,27.7500125 L21.4687346,27.7500125 C21.6240534,27.7500125 21.7499839,27.875943 21.7499839,28.0312618 L21.7499839,30.3750063 L22.0312332,30.3750063 C22.1865521,30.3750063 22.3124826,30.5009367 22.3124826,30.6562556 L22.3124826,31.2187542 C22.3124826,31.3740731 22.1865521,31.5000036 22.0312332,31.5000036 Z" id="icon-info"></path>
            </g>
        </g>
    </g>
</svg>