<?xml version="1.0" encoding="UTF-8"?>
<svg width="57px" height="77px" viewBox="0 0 57 77" version="1.1" xmlns="http://www.w3.org/2000/svg" xmlns:xlink="http://www.w3.org/1999/xlink">
    <title>Page 1</title>
    <g id="test" stroke="none" stroke-width="1" fill="none" fill-rule="evenodd">
        <g id="test-00" transform="translate(-248.000000, -193.000000)" fill="#37474F">
            <g id="Page-1" transform="translate(248.769231, 193.000000)">
                <g id="Group" transform="translate(0.000000, 0.000826)">
                    <g id="sl-logo-black" transform="translate(0.000000, 0.000000)">
                        <path d="M3.71500894,72.7835957 L51.383381,72.7835957 L51.383381,3.62271914 L3.71500894,3.62271914 L3.71500894,72.7835957 Z M51.2456351,-2.51548463e-14 L3.85137746,-2.51548463e-14 C1.72457961,-2.51548463e-14 1.57217789e-14,1.72457961 1.57217789e-14,3.85137746 L1.57217789e-14,72.6169231 C1.57217789e-14,74.7450984 1.72457961,76.4710555 3.85137746,76.4710555 L51.2456351,76.4710555 C53.3738104,76.4710555 55.09839,74.7450984 55.09839,72.6169231 L55.09839,3.85137746 C55.09839,1.72457961 53.3738104,-2.51548463e-14 51.2456351,-2.51548463e-14 L51.2456351,-2.51548463e-14 Z" id="Fill-20"></path>
                        <path d="M38.8905098,41.0043596 C38.8905098,41.9713363 38.097093,42.7551109 37.1190966,42.7551109 L17.9792934,42.7551109 C16.9999195,42.7551109 16.2078801,41.9713363 16.2078801,41.0043596 C16.2078801,40.0387603 16.9999195,39.2563631 17.9792934,39.2563631 L37.1190966,39.2563631 C38.097093,39.2563631 38.8905098,40.0387603 38.8905098,41.0043596" id="Fill-22"></path>
                        <path d="M38.8905098,48.9328801 C38.8905098,49.8998569 38.097093,50.6836315 37.1190966,50.6836315 L17.9792934,50.6836315 C16.9999195,50.6836315 16.2078801,49.8998569 16.2078801,48.9328801 C16.2078801,47.9672809 16.9999195,47.1848837 17.9792934,47.1848837 L37.1190966,47.1848837 C38.097093,47.1848837 38.8905098,47.9672809 38.8905098,48.9328801" id="Fill-23"></path>
                        <path d="M38.8905098,57.1337245 C38.8905098,58.0993238 38.097093,58.8830984 37.1190966,58.8830984 L17.9792934,58.8830984 C16.9999195,58.8830984 16.2078801,58.0993238 16.2078801,57.1337245 C16.2078801,56.1681252 16.9999195,55.3843506 17.9792934,55.3843506 L37.1190966,55.3843506 C38.097093,55.3843506 38.8905098,56.1681252 38.8905098,57.1337245" id="Fill-24"></path>
                        <path d="M23.0100519,29.2980179 C22.5995689,29.0156386 22.2910179,28.6561216 22.2910179,28.2070698 C22.2910179,27.872347 22.4452934,27.5252272 22.7152755,27.3075886 C22.920517,27.1271413 23.1519302,27.0376064 23.4343095,27.0376064 C23.7042916,27.0376064 24.0128426,27.1519356 24.4109284,27.4095206 C25.3228068,28.0004508 26.2346852,28.2842075 27.5570465,28.2842075 C29.2279052,28.2842075 30.4221628,27.6918998 30.4221628,26.4466762 C30.4221628,25.5719893 29.9207674,25.0210054 28.6631467,24.9052987 L26.5680304,24.7124544 C24.1409463,24.4934383 22.7152755,23.4011127 22.7152755,21.1407013 C22.7152755,18.5855134 24.9109463,17.146068 27.6341843,17.146068 C29.0350608,17.146068 30.1273864,17.3898784 31.1411968,17.865102 C31.5778515,18.0703435 31.8216619,18.2383936 31.989712,18.4174633 C32.1825564,18.6488766 32.2335224,18.8417209 32.2335224,19.1378748 C32.2335224,19.3940823 32.091644,19.7150304 31.9125742,19.9078748 C31.6935581,20.1268909 31.4497478,20.2425975 31.1411968,20.2425975 C30.8973864,20.2425975 30.6411789,20.139288 30.294059,19.9712379 C29.4717156,19.5731521 28.5846315,19.2907728 27.5832182,19.2907728 C26.0280662,19.2907728 25.2456691,20.0098068 25.2456691,21.0002004 C25.2456691,21.9630447 25.8489964,22.3873023 27.043254,22.4906118 L29.098424,22.6820787 C31.5268855,22.9134919 32.9663309,24.0319893 32.9663309,26.3571413 C32.9663309,29.0679821 30.653576,30.4798784 27.5446494,30.4798784 C25.5142737,30.4798784 24.1795152,30.0955671 23.0100519,29.2980179" id="Fill-25"></path>
                    </g>
                </g>
            </g>
        </g>
    </g>
</svg>